<svg width="384" height="359" viewBox="0 0 384 359" fill="none" xmlns="http://www.w3.org/2000/svg">
<circle cx="122.314" cy="17.3758" r="12" transform="rotate(37.7203 122.314 17.3758)" fill="#FFD300"/>
<circle cx="87.4414" cy="62.4632" r="12" transform="rotate(37.7203 87.4414 62.4632)" fill="#FFD300"/>
<circle cx="52.5684" cy="107.551" r="12" transform="rotate(37.7203 52.5684 107.551)" fill="#FFD300"/>
<circle cx="17.6954" cy="152.638" r="12" transform="rotate(37.7203 17.6954 152.638)" fill="#FFD300"/>
<circle cx="122.314" cy="17.3758" r="12" transform="rotate(37.7203 122.314 17.3758)" fill="#FFD300"/>
<circle cx="87.4414" cy="62.4632" r="12" transform="rotate(37.7203 87.4414 62.4632)" fill="#FFD300"/>
<circle cx="52.5684" cy="107.551" r="12" transform="rotate(37.7203 52.5684 107.551)" fill="#FFD300"/>
<circle cx="17.6954" cy="152.638" r="12" transform="rotate(37.7203 17.6954 152.638)" fill="#FFD300"/>
<circle cx="165.029" cy="50.4129" r="12" transform="rotate(37.7203 165.029 50.4129)" fill="#FFD300"/>
<circle cx="130.156" cy="95.5003" r="12" transform="rotate(37.7203 130.156 95.5003)" fill="#FFD300"/>
<circle cx="95.2832" cy="140.588" r="12" transform="rotate(37.7203 95.2832 140.588)" fill="#FFD300"/>
<circle cx="60.4102" cy="185.675" r="12" transform="rotate(37.7203 60.4102 185.675)" fill="#FFD300"/>
<circle cx="165.029" cy="50.4129" r="12" transform="rotate(37.7203 165.029 50.4129)" fill="#FFD300"/>
<circle cx="130.156" cy="95.5003" r="12" transform="rotate(37.7203 130.156 95.5003)" fill="#FFD300"/>
<circle cx="95.2832" cy="140.588" r="12" transform="rotate(37.7203 95.2832 140.588)" fill="#FFD300"/>
<circle cx="60.4102" cy="185.675" r="12" transform="rotate(37.7203 60.4102 185.675)" fill="#FFD300"/>
<circle cx="207.743" cy="83.451" r="12" transform="rotate(37.7203 207.743 83.451)" fill="#FFD300"/>
<circle cx="172.87" cy="128.538" r="12" transform="rotate(37.7203 172.87 128.538)" fill="#FFD300"/>
<circle cx="137.997" cy="173.626" r="12" transform="rotate(37.7203 137.997 173.626)" fill="#FFD300"/>
<circle cx="103.124" cy="218.713" r="12" transform="rotate(37.7203 103.124 218.713)" fill="#FFD300"/>
<circle cx="207.743" cy="83.451" r="12" transform="rotate(37.7203 207.743 83.451)" fill="#FFD300"/>
<circle cx="172.87" cy="128.538" r="12" transform="rotate(37.7203 172.87 128.538)" fill="#FFD300"/>
<circle cx="137.997" cy="173.626" r="12" transform="rotate(37.7203 137.997 173.626)" fill="#FFD300"/>
<circle cx="103.124" cy="218.713" r="12" transform="rotate(37.7203 103.124 218.713)" fill="#FFD300"/>
<circle cx="248.876" cy="115.265" r="12" transform="rotate(37.7203 248.876 115.265)" fill="#FFD300"/>
<circle cx="214.003" cy="160.353" r="12" transform="rotate(37.7203 214.003 160.353)" fill="#FFD300"/>
<circle cx="179.13" cy="205.44" r="12" transform="rotate(37.7203 179.13 205.44)" fill="#FFD300"/>
<circle cx="144.257" cy="250.528" r="12" transform="rotate(37.7203 144.257 250.528)" fill="#FFD300"/>
<circle cx="248.876" cy="115.265" r="12" transform="rotate(37.7203 248.876 115.265)" fill="#FFD300"/>
<circle cx="214.003" cy="160.353" r="12" transform="rotate(37.7203 214.003 160.353)" fill="#FFD300"/>
<circle cx="179.13" cy="205.44" r="12" transform="rotate(37.7203 179.13 205.44)" fill="#FFD300"/>
<circle cx="144.257" cy="250.528" r="12" transform="rotate(37.7203 144.257 250.528)" fill="#FFD300"/>
<circle cx="281.307" cy="140.349" r="12" transform="rotate(37.7203 281.307 140.349)" fill="#FFD300"/>
<circle cx="246.434" cy="185.437" r="12" transform="rotate(37.7203 246.434 185.437)" fill="#FFD300"/>
<circle cx="211.561" cy="230.524" r="12" transform="rotate(37.7203 211.561 230.524)" fill="#FFD300"/>
<circle cx="176.688" cy="275.612" r="12" transform="rotate(37.7203 176.688 275.612)" fill="#FFD300"/>
<circle cx="281.307" cy="140.349" r="12" transform="rotate(37.7203 281.307 140.349)" fill="#FFD300"/>
<circle cx="246.434" cy="185.437" r="12" transform="rotate(37.7203 246.434 185.437)" fill="#FFD300"/>
<circle cx="211.561" cy="230.524" r="12" transform="rotate(37.7203 211.561 230.524)" fill="#FFD300"/>
<circle cx="176.688" cy="275.612" r="12" transform="rotate(37.7203 176.688 275.612)" fill="#FFD300"/>
<circle cx="324.021" cy="173.387" r="12" transform="rotate(37.7203 324.021 173.387)" fill="#FFD300"/>
<circle cx="289.148" cy="218.474" r="12" transform="rotate(37.7203 289.148 218.474)" fill="#FFD300"/>
<circle cx="254.275" cy="263.561" r="12" transform="rotate(37.7203 254.275 263.561)" fill="#FFD300"/>
<circle cx="219.402" cy="308.649" r="12" transform="rotate(37.7203 219.402 308.649)" fill="#FFD300"/>
<circle cx="324.021" cy="173.387" r="12" transform="rotate(37.7203 324.021 173.387)" fill="#FFD300"/>
<circle cx="289.148" cy="218.474" r="12" transform="rotate(37.7203 289.148 218.474)" fill="#FFD300"/>
<circle cx="254.275" cy="263.561" r="12" transform="rotate(37.7203 254.275 263.561)" fill="#FFD300"/>
<circle cx="219.402" cy="308.649" r="12" transform="rotate(37.7203 219.402 308.649)" fill="#FFD300"/>
<circle cx="366.736" cy="206.424" r="12" transform="rotate(37.7203 366.736 206.424)" fill="#FFD300"/>
<circle cx="331.863" cy="251.511" r="12" transform="rotate(37.7203 331.863 251.511)" fill="#FFD300"/>
<circle cx="296.99" cy="296.598" r="12" transform="rotate(37.7203 296.99 296.598)" fill="#FFD300"/>
<circle cx="262.117" cy="341.686" r="12" transform="rotate(37.7203 262.117 341.686)" fill="#FFD300"/>
<circle cx="366.736" cy="206.424" r="12" transform="rotate(37.7203 366.736 206.424)" fill="#FFD300"/>
<circle cx="331.863" cy="251.511" r="12" transform="rotate(37.7203 331.863 251.511)" fill="#FFD300"/>
<circle cx="296.99" cy="296.598" r="12" transform="rotate(37.7203 296.99 296.598)" fill="#FFD300"/>
<circle cx="262.117" cy="341.686" r="12" transform="rotate(37.7203 262.117 341.686)" fill="#FFD300"/>
</svg>
