<svg width="479" height="424" viewBox="0 0 479 424" fill="none" xmlns="http://www.w3.org/2000/svg">
<path d="M4 279.203L52.5042 280.823L66.6956 232.018L117.522 231.891L129.391 184.834L177.895 186.454L189.765 139.397L237.108 141.891L247.816 95.7069L296.32 97.3271L307.029 51.1435L356.694 51.89L369.144 4.39569M34.529 319.768L83.0332 321.388L97.2246 272.583L148.051 272.456L159.92 225.398L208.424 227.019L220.294 179.961L267.637 182.455L278.345 136.272L326.849 137.892L337.558 91.7082L387.223 92.4547L399.673 44.9604M65.058 360.333L113.562 361.953L127.754 313.148L178.58 313.02L190.449 265.963L238.953 267.583L250.823 220.526L298.166 223.02L308.874 176.836L357.378 178.456L368.087 132.273L417.752 133.019L430.202 85.5251M91.7616 394.718L140.266 396.338L154.457 347.533L205.284 347.406L217.153 300.348L265.657 301.969L277.527 254.911L324.868 257.407L335.576 211.223L384.08 212.843L394.789 166.66L444.454 167.406L456.904 119.912" stroke="#FFD300" stroke-width="5"/>
</svg>
