<svg width="908" height="645" viewBox="0 0 908 645" fill="none" xmlns="http://www.w3.org/2000/svg">
<rect width="849.378" height="592.305" rx="50" transform="matrix(1 0 -0.0989724 0.99509 58.6221 55.5156)" fill="#FCD107" fill-opacity="0.95"/>
<circle r="56.2612" transform="matrix(1 0 -0.0908064 0.995869 228.424 64.4605)" fill="white"/>
<path d="M196.119 67.05C196.119 64.75 196.969 61.85 198.669 58.35C200.369 54.85 202.569 51.8 205.269 49.2C207.969 46.6 210.769 45.3 213.669 45.3C215.869 45.3 217.619 45.8 218.919 46.8C220.219 47.7 220.869 49.2 220.869 51.3C220.869 52.9 220.469 54.05 219.669 54.75C218.869 55.35 217.969 55.8 216.969 56.1C216.069 56.4 215.419 56.65 215.019 56.85C212.219 58.35 210.819 60.35 210.819 62.85C210.819 63.95 211.319 64.95 212.319 65.85C213.419 66.65 214.819 67.05 216.519 67.05C218.219 67.05 219.619 66.7 220.719 66C221.919 66.5 222.819 67.15 223.419 67.95C224.119 68.75 224.469 69.95 224.469 71.55C224.469 73.55 223.719 75.45 222.219 77.25C220.719 78.95 218.869 80.35 216.669 81.45C214.469 82.45 212.319 82.95 210.219 82.95C205.819 82.95 202.369 81.6 199.869 78.9C197.369 76.1 196.119 72.15 196.119 67.05ZM229.269 67.05C229.269 64.75 230.119 61.85 231.819 58.35C233.519 54.85 235.719 51.8 238.419 49.2C241.119 46.6 243.919 45.3 246.819 45.3C249.019 45.3 250.769 45.8 252.069 46.8C253.369 47.7 254.019 49.2 254.019 51.3C254.019 52.9 253.619 54.05 252.819 54.75C252.019 55.35 251.119 55.8 250.119 56.1C249.219 56.4 248.569 56.65 248.169 56.85C245.369 58.35 243.969 60.35 243.969 62.85C243.969 63.95 244.469 64.95 245.469 65.85C246.569 66.65 247.969 67.05 249.669 67.05C251.369 67.05 252.769 66.7 253.869 66C255.069 66.5 255.969 67.15 256.569 67.95C257.269 68.75 257.619 69.95 257.619 71.55C257.619 73.55 256.869 75.45 255.369 77.25C253.869 78.95 252.019 80.35 249.819 81.45C247.619 82.45 245.469 82.95 243.369 82.95C238.969 82.95 235.519 81.6 233.019 78.9C230.519 76.1 229.269 72.15 229.269 67.05Z" fill="#FF5E5E"/>
<path d="M196.119 67.05C196.119 64.75 196.969 61.85 198.669 58.35C200.369 54.85 202.569 51.8 205.269 49.2C207.969 46.6 210.769 45.3 213.669 45.3C215.869 45.3 217.619 45.8 218.919 46.8C220.219 47.7 220.869 49.2 220.869 51.3C220.869 52.9 220.469 54.05 219.669 54.75C218.869 55.35 217.969 55.8 216.969 56.1C216.069 56.4 215.419 56.65 215.019 56.85C212.219 58.35 210.819 60.35 210.819 62.85C210.819 63.95 211.319 64.95 212.319 65.85C213.419 66.65 214.819 67.05 216.519 67.05C218.219 67.05 219.619 66.7 220.719 66C221.919 66.5 222.819 67.15 223.419 67.95C224.119 68.75 224.469 69.95 224.469 71.55C224.469 73.55 223.719 75.45 222.219 77.25C220.719 78.95 218.869 80.35 216.669 81.45C214.469 82.45 212.319 82.95 210.219 82.95C205.819 82.95 202.369 81.6 199.869 78.9C197.369 76.1 196.119 72.15 196.119 67.05ZM229.269 67.05C229.269 64.75 230.119 61.85 231.819 58.35C233.519 54.85 235.719 51.8 238.419 49.2C241.119 46.6 243.919 45.3 246.819 45.3C249.019 45.3 250.769 45.8 252.069 46.8C253.369 47.7 254.019 49.2 254.019 51.3C254.019 52.9 253.619 54.05 252.819 54.75C252.019 55.35 251.119 55.8 250.119 56.1C249.219 56.4 248.569 56.65 248.169 56.85C245.369 58.35 243.969 60.35 243.969 62.85C243.969 63.95 244.469 64.95 245.469 65.85C246.569 66.65 247.969 67.05 249.669 67.05C251.369 67.05 252.769 66.7 253.869 66C255.069 66.5 255.969 67.15 256.569 67.95C257.269 68.75 257.619 69.95 257.619 71.55C257.619 73.55 256.869 75.45 255.369 77.25C253.869 78.95 252.019 80.35 249.819 81.45C247.619 82.45 245.469 82.95 243.369 82.95C238.969 82.95 235.519 81.6 233.019 78.9C230.519 76.1 229.269 72.15 229.269 67.05Z" fill="#FF5E5E"/>
<circle cx="193.5" cy="539.5" r="11.5" fill="white"/>
<circle cx="245.5" cy="539.5" r="8.5" fill="white"/>
<circle cx="288.5" cy="539.5" r="8.5" fill="white"/>
<circle cx="328.5" cy="539.5" r="8.5" fill="white"/>
<circle cx="370.5" cy="539.5" r="8.5" fill="white"/>
</svg>
