<svg width="156" height="218" viewBox="0 0 156 218" fill="none" xmlns="http://www.w3.org/2000/svg">
<circle r="56.2612" transform="matrix(1 0 -0.0908064 0.995869 75.3701 67.0288)" fill="white"/>
<path d="M46.1191 67.05C46.1191 64.75 46.9691 61.85 48.6691 58.35C50.3691 54.85 52.5691 51.8 55.2691 49.2C57.9691 46.6 60.7691 45.3 63.6691 45.3C65.8691 45.3 67.6191 45.8 68.9191 46.8C70.2191 47.7 70.8691 49.2 70.8691 51.3C70.8691 52.9 70.4691 54.05 69.6691 54.75C68.8691 55.35 67.9691 55.8 66.9691 56.1C66.0691 56.4 65.4191 56.65 65.0191 56.85C62.2191 58.35 60.8191 60.35 60.8191 62.85C60.8191 63.95 61.3191 64.95 62.3191 65.85C63.4191 66.65 64.8191 67.05 66.5191 67.05C68.2191 67.05 69.6191 66.7 70.7191 66C71.9191 66.5 72.8191 67.15 73.4191 67.95C74.1191 68.75 74.4691 69.95 74.4691 71.55C74.4691 73.55 73.7191 75.45 72.2191 77.25C70.7191 78.95 68.8691 80.35 66.6691 81.45C64.4691 82.45 62.3191 82.95 60.2191 82.95C55.8191 82.95 52.3691 81.6 49.8691 78.9C47.3691 76.1 46.1191 72.15 46.1191 67.05ZM79.2691 67.05C79.2691 64.75 80.1191 61.85 81.8191 58.35C83.5191 54.85 85.7191 51.8 88.4191 49.2C91.1191 46.6 93.9191 45.3 96.8191 45.3C99.0191 45.3 100.769 45.8 102.069 46.8C103.369 47.7 104.019 49.2 104.019 51.3C104.019 52.9 103.619 54.05 102.819 54.75C102.019 55.35 101.119 55.8 100.119 56.1C99.2191 56.4 98.5691 56.65 98.1691 56.85C95.3691 58.35 93.9691 60.35 93.9691 62.85C93.9691 63.95 94.4691 64.95 95.4691 65.85C96.5691 66.65 97.9691 67.05 99.6691 67.05C101.369 67.05 102.769 66.7 103.869 66C105.069 66.5 105.969 67.15 106.569 67.95C107.269 68.75 107.619 69.95 107.619 71.55C107.619 73.55 106.869 75.45 105.369 77.25C103.869 78.95 102.019 80.35 99.8191 81.45C97.6191 82.45 95.4691 82.95 93.3691 82.95C88.9691 82.95 85.5191 81.6 83.0191 78.9C80.5191 76.1 79.2691 72.15 79.2691 67.05Z" fill="#FF5E5E"/>
</svg>
