<svg width="356" height="65" viewBox="0 0 356 65" fill="none" xmlns="http://www.w3.org/2000/svg">
<path d="M65 32.6978C65 14.6349 50.4536 0 32.5 0C14.5464 0 0 14.6349 0 32.6978C0 49.0176 11.8848 62.545 27.4219 65V42.1498H19.1658V32.6978H27.4219V25.4937C27.4219 17.2995 32.2707 12.7732 39.6972 12.7732C43.2538 12.7732 46.973 13.4114 46.973 13.4114V21.454H42.8738C38.8375 21.454 37.5781 23.9748 37.5781 26.5603V32.6978H46.5916L45.1501 42.1498H37.5781V65C53.1152 62.545 65 49.0176 65 32.6978Z" fill="white"/>
<path d="M195.824 37.5598C195.122 37.2045 191.704 35.5368 191.066 35.2988C190.427 35.0713 189.963 34.9522 189.498 35.654C189.043 36.3382 187.702 37.9045 187.293 38.3613C186.883 38.818 186.481 38.853 185.789 38.5433C185.088 38.188 182.846 37.4582 180.184 35.0712C178.105 33.2215 176.721 30.943 176.31 30.2412C175.9 29.5482 176.264 29.1563 176.611 28.8098C176.929 28.4913 177.313 28.0083 177.668 27.5883C178.006 27.1683 178.114 26.8865 178.361 26.4315C178.588 25.9397 178.471 25.5565 178.298 25.21C178.124 24.8635 176.73 21.4283 176.147 20.0598C175.59 18.7018 175.008 18.875 174.579 18.875C174.178 18.8383 173.713 18.8383 173.249 18.8383C172.785 18.8383 172.027 19.0115 171.389 19.6765C170.75 20.3783 168.946 22.0548 168.946 25.4463C168.946 28.8465 171.443 32.1365 171.789 32.6282C172.145 33.0832 176.702 40.0832 183.693 43.0915C185.361 43.7932 186.656 44.2133 187.667 44.5598C189.335 45.0883 190.858 45.0147 192.06 44.8415C193.39 44.6227 196.179 43.1545 196.764 41.5148C197.357 39.8645 197.357 38.4977 197.184 38.188C197.01 37.8695 196.555 37.6962 195.854 37.3865L195.824 37.5598ZM183.145 54.75H183.109C178.97 54.75 174.878 53.6282 171.305 51.5317L170.467 51.0312L161.717 53.3098L164.069 44.796L163.503 43.921C161.192 40.2466 159.966 35.9942 159.967 31.6535C159.967 18.9485 170.367 8.585 183.163 8.585C189.361 8.585 195.177 11 199.552 15.375C201.71 17.5075 203.422 20.0485 204.587 22.8497C205.753 25.6509 206.35 28.6562 206.341 31.6902C206.324 44.3865 195.932 54.75 183.154 54.75H183.145ZM202.878 12.0482C197.555 6.90675 190.555 4 183.109 4C167.751 4 155.245 16.4512 155.236 31.7533C155.236 36.6393 156.512 41.4062 158.955 45.6255L155 60L169.784 56.1448C173.88 58.3528 178.457 59.5143 183.11 59.5258H183.119C198.486 59.5258 210.991 47.0745 211 31.762C211 24.3525 208.111 17.3787 202.843 12.1375L202.878 12.0482Z" fill="white"/>
<path d="M327.492 22.3294C322.259 22.3294 317.988 26.4503 317.988 31.5C317.988 36.5497 322.259 40.6706 327.492 40.6706C332.726 40.6706 336.996 36.5497 336.996 31.5C336.996 26.4503 332.726 22.3294 327.492 22.3294ZM355.997 31.5C355.997 27.7024 356.032 23.9393 355.811 20.1486C355.59 15.7456 354.549 11.838 351.213 8.61829C347.869 5.39173 343.826 4.39419 339.263 4.18092C335.328 3.96765 331.428 4.00205 327.499 4.00205C323.564 4.00205 319.664 3.96765 315.735 4.18092C311.172 4.39419 307.123 5.39861 303.786 8.61829C300.442 11.8448 299.409 15.7456 299.187 20.1486C298.966 23.9461 299.002 27.7093 299.002 31.5C299.002 35.2907 298.966 39.0607 299.187 42.8514C299.409 47.2544 300.449 51.162 303.786 54.3817C307.13 57.6083 311.172 58.6058 315.735 58.8191C319.671 59.0323 323.571 58.998 327.499 58.998C331.435 58.998 335.335 59.0323 339.263 58.8191C343.826 58.6058 347.876 57.6014 351.213 54.3817C354.557 51.1551 355.59 47.2544 355.811 42.8514C356.04 39.0607 355.997 35.2976 355.997 31.5ZM327.492 45.6102C319.4 45.6102 312.869 39.3084 312.869 31.5C312.869 23.6916 319.4 17.3898 327.492 17.3898C335.585 17.3898 342.115 23.6916 342.115 31.5C342.115 39.3084 335.585 45.6102 327.492 45.6102ZM342.714 20.1073C340.825 20.1073 339.299 18.6351 339.299 16.812C339.299 14.9888 340.825 13.5166 342.714 13.5166C344.604 13.5166 346.129 14.9888 346.129 16.812C346.13 17.2449 346.042 17.6736 345.871 18.0737C345.699 18.4737 345.448 18.8372 345.13 19.1433C344.813 19.4494 344.436 19.6922 344.022 19.8576C343.607 20.023 343.163 20.1078 342.714 20.1073Z" fill="white"/>
</svg>
